<?xml version="1.0" encoding="UTF-8"?>
<svg id="Calque_1" xmlns="http://www.w3.org/2000/svg" version="1.1" xmlns:xlink="http://www.w3.org/1999/xlink" viewBox="0 0 309.3 112.01">
  <!-- Generator: Adobe Illustrator 30.2.1, SVG Export Plug-In . SVG Version: 2.1.1 Build 1)  -->
  <defs>
            <style>
      .st0 {
        fill: blue;
      }

      .st1 {
        fill: none;
      }

      .st2 {
        fill: #878787;
      }

      .st3 {
        fill: #1d1d1b;
      }

      .st4 {
        clip-path: url(#clippath);
      }
    </style>
    <clipPath id="clippath">
      <rect class="st1" x="67.24" width="174.81" height="84.2"/>
    </clipPath>
  </defs>
  <g class="st4">
    <path class="st3" d="M223.29,66.13c.49-.24,1.08-.43,1.75-.57.67-.14,1.35-.23,2.02-.27s1.19-.06,1.55-.06c.38,0,.91.03,1.6.08.68.05,1.36.17,2.02.35.66.18,1.24.43,1.74.74.49.32.74.73.74,1.23h7.17c0-1.18-.36-2.2-1.07-3.06-.72-.86-1.68-1.59-2.89-2.18-1.21-.59-2.62-1.03-4.23-1.31-1.61-.28-3.3-.43-5.07-.43-1.43,0-2.91.13-4.45.38-1.54.25-2.95.65-4.23,1.18-1.28.54-2.34,1.22-3.16,2.05-.82.83-1.23,1.84-1.23,3.02,0,1.39.32,2.49.96,3.3.64.81,1.55,1.47,2.72,1.97,1.17.51,2.56.92,4.18,1.23,1.62.31,3.42.66,5.4,1.04.32.06.8.14,1.47.24.66.1,1.32.24,1.97.43.65.19,1.23.45,1.72.77.49.33.74.76.74,1.31,0,.51-.23.9-.68,1.17-.45.27-.99.47-1.63.6-.63.13-1.28.21-1.94.24-.66.03-1.21.05-1.63.05-.38,0-.9-.03-1.56-.08-.66-.05-1.32-.16-1.97-.33-.65-.17-1.21-.41-1.69-.73-.47-.32-.71-.74-.71-1.26h-7.17c0,1.16.36,2.17,1.07,3.05.72.87,1.67,1.6,2.87,2.19,1.2.59,2.57,1.03,4.12,1.31s3.15.43,4.81.43c1.45,0,2.97-.12,4.55-.35,1.58-.23,3.03-.61,4.36-1.14,1.33-.53,2.41-1.21,3.27-2.05.85-.84,1.28-1.87,1.28-3.09,0-1.28-.23-2.35-.68-3.19s-1.2-1.55-2.24-2.12c-1.04-.57-2.41-1.05-4.1-1.44-1.69-.39-3.77-.78-6.24-1.18-.44-.06-1.02-.15-1.72-.25-.7-.1-1.39-.25-2.07-.44-.67-.19-1.25-.43-1.74-.73-.48-.29-.73-.67-.73-1.14,0-.4.25-.72.74-.96M212.76,61.38h-5.9v22.1h5.9v-22.1ZM183.02,69.33c.38-.84.9-1.53,1.58-2.05.67-.53,1.48-.91,2.43-1.14.95-.23,2-.35,3.16-.35s2.21.12,3.16.35c.95.23,1.76.61,2.45,1.14.68.53,1.21,1.21,1.58,2.05.37.84.55,1.87.55,3.09s-.18,2.25-.55,3.09c-.37.84-.89,1.53-1.58,2.05-.69.53-1.5.91-2.45,1.14-.95.23-2,.35-3.16.35s-2.21-.11-3.16-.35c-.95-.23-1.76-.61-2.43-1.14-.67-.52-1.2-1.21-1.58-2.05-.38-.84-.57-1.87-.57-3.09s.19-2.25.57-3.09M195.47,83.44c1.69-.51,3.19-1.25,4.48-2.24,1.29-.99,2.33-2.22,3.09-3.68.77-1.46,1.15-3.16,1.15-5.1s-.38-3.64-1.15-5.1c-.77-1.46-1.8-2.69-3.09-3.68-1.29-.99-2.79-1.74-4.48-2.24-1.69-.51-3.46-.76-5.29-.76s-3.59.25-5.27.76c-1.68.5-3.17,1.25-4.47,2.24-1.29.99-2.33,2.22-3.09,3.68-.77,1.46-1.15,3.16-1.15,5.1s.38,3.64,1.15,5.1c.77,1.46,1.8,2.69,3.09,3.68,1.29.99,2.78,1.74,4.47,2.24,1.68.5,3.44.76,5.27.76s3.59-.25,5.29-.76M154.1,69.84v-4.04h10.7c.25,0,.52.01.81.03s.54.09.77.22c.23.13.43.33.58.6.16.27.24.66.24,1.17s-.08.9-.24,1.17c-.16.27-.35.47-.58.6-.23.13-.49.2-.77.22s-.55.03-.81.03h-10.7ZM165.9,74.26c.25,0,.55.03.88.1.34.06.66.18.96.35.31.17.56.41.77.73.21.31.32.73.32,1.23,0,.59-.08,1.05-.25,1.37-.17.33-.38.57-.65.73-.26.16-.55.25-.85.27s-.58.03-.84.03h-12.16v-4.8h11.81ZM147.85,61.38v22.1h19.7c.95,0,1.83-.14,2.65-.43s1.54-.69,2.16-1.23c.62-.54,1.11-1.21,1.47-2.02.36-.81.54-1.73.54-2.76,0-.65-.12-1.26-.36-1.83-.24-.57-.58-1.08-1.01-1.53-.43-.45-.94-.83-1.51-1.14-.58-.31-1.22-.53-1.91-.68.38-.08.76-.26,1.15-.54.39-.27.75-.61,1.07-1.01.33-.4.59-.85.79-1.34.2-.49.3-1,.3-1.53,0-1.01-.18-1.9-.54-2.65-.36-.76-.84-1.39-1.45-1.9-.61-.51-1.33-.88-2.15-1.14-.82-.25-1.71-.38-2.65-.38h-18.25ZM123.6,83.48h22.1v-4.42h-15.85v-17.68h-6.25v22.1ZM118.96,73.91v-4.42h-15.85v-3.69h17.33v-4.42h-23.58v22.1h23.58v-4.42h-17.33v-5.15h15.85ZM87.86,73.15c0,1.22-.08,2.22-.25,2.98-.17.77-.45,1.37-.85,1.8-.4.43-.93.73-1.59.89-.66.16-1.48.24-2.45.24h-9.22v-13.26h9.22c.99,0,1.82.08,2.48.24.66.16,1.19.45,1.58.88.39.43.67,1.03.84,1.8.17.77.25,1.76.25,2.98v1.45ZM67.24,61.38v22.1h15.47c1.83,0,3.44-.17,4.81-.52,1.38-.35,2.53-.93,3.46-1.74.93-.81,1.62-1.87,2.08-3.19.46-1.31.69-2.94.69-4.88v-1.45c0-1.94-.23-3.56-.69-4.88-.46-1.32-1.16-2.38-2.08-3.19-.93-.81-2.08-1.39-3.46-1.74-1.38-.35-2.98-.52-4.81-.52h-15.47Z"/>
    <path class="st0" d="M188.72,40.5c-.96,3.06-.01,5.06-.01,5.06-.81-.84-3.52-3.11-5.67-5.22,1.81-.99,8.53-4.63,8.61-4.55,0,0-1.95,1.56-2.93,4.71M194.29,33.01c-1.54.39-4.61,2.02-4.99,2.21-2.23,1.14-4.17,2.05-6.38,3.22-.77.41-1.32.69-1.32.69,0,0-4.05-3.88-5.62-5.43-1.91-1.87-2.01-1.84-3.84.01-4.34,4.39-9.26,8.01-14.84,10.69-2.35,1.13-4.85,1.58-7.46,1.32-4.76-.47-8.98-2.43-13-4.85-1.38-.83-2.4-.76-3.67.17-1.9,1.39-3.92,2.62-5.91,3.89-.52.33-1.12.53-2.03.95.73-2.37,1.72-4.12,3.19-5.57,1.96-1.94,3.95-3.85,5.95-5.75.69-.66,1.1-1.54.43-2.16-.38-.35-1.49-.28-2.19.36-1.33,1.13-2.37,2.6-3.68,3.76-3.04,2.68-5.98,5.55-9.34,7.78-3.88,2.58-6.33.83-6.59-3.46-.26-4.31.39-10.01,1.09-14.98.4-2.9.82-5.79,1.3-8.7.01-.1-.04-.21-.17-.24-1.4-.33-2.25.09-3.02,1.1-5.8,7.58-17.83,23-18.17,23.28.05-.43,3.84-16.65,5-24.33,1.23-8.17,1.36-13.35,1.28-14.42-.08-1.07-.3-2.13-1.25-2.45-.66-.22-1.92-.02-2.8.69-.88.71-2.36,2.19-3.35,3.45-9.67,12.33-16.96,26.2-24.81,39.68-.51.87-.94,2.27-.31,2.78.61.47,1.43.35,2.81-1.99,5.8-10.15,11.49-20.37,17.5-30.39,2.44-4.06,5.43-8.32,8.44-11.52.75-.8,1.36-1.49,1.87-1.21.58.32.46,1.08.43,2.16-.03,1.08-.39,6.38-1.12,11.07-1.59,10.59-3.77,18.74-6.63,29.04-.35,1.25-.03,2.37.85,2.86.67.38.98.22,1.29-.17,6.91-8.64,13.42-17.49,20.09-26.19-.13.88-.31,1.84-.41,2.82-.57,5.48-1.35,10.1-1.53,16.18-.05,1.75.16,3.74.99,5.65.84,1.91,2.78,2.9,4.92,2.22,1.93-.61,6.32-3.13,6.44-3.19-.12,1.08-.31,2.49.36,2.99.68.5,2.16.18,3.06-.24,2.31-1.08,4.54-2.35,6.73-3.67.86-.52,1.43-.45,2.31-.02,2.19,1.09,4.41,2.21,6.73,2.94,5.51,1.74,11.07,2.24,16.35-.77,3.88-2.04,13.13-8.48,14.39-9.52.31-.25.54-.22.82,0,1.69,1.36,3.29,2.8,5.11,4.36-3.5,1.76-6.74,3.49-10.06,5.01-.93.43-1.41,1-1.07,1.74.2.43,1.36.75,1.83.6.58-.18,2.34-1.48,3.72-2.08,2.3-1.13,7.29-3.87,7.29-3.87,0,0,1.68,1.53,2.03,1.83,1.16,1.01,2.53,2.09,3.63,3.11.88.81,1.85.89,2.41.92.42.02,3.57-.11,1.89-1.24,0,0-2.91-1.79.23-7.5,1.41-2.57,3.64-3.17,5.11-3.68,2.34-.82-.28-2.44-2.32-1.93"/>
  </g>
  <path class="st3" d="M247.41,99.49v-1h-3.15v-.94h2.8v-.96h-2.8v-.89h3.1v-1h-4.45v4.79h4.5ZM240.61,99.36c.38-.15.7-.35.95-.6.25-.25.41-.53.5-.84l-1.21-.29c-.1.23-.22.42-.38.55-.16.13-.34.23-.54.28-.2.05-.41.08-.63.08-.3,0-.57-.05-.82-.15-.25-.1-.44-.25-.59-.46-.15-.2-.22-.46-.22-.77v-.14c0-.31.07-.57.22-.77.15-.2.34-.35.59-.46.25-.1.52-.15.82-.15.22,0,.43.03.63.08.2.05.38.15.54.28.16.13.28.32.38.55l1.21-.29c-.09-.31-.25-.59-.5-.84-.25-.25-.56-.45-.95-.59-.38-.14-.82-.22-1.33-.22-.58,0-1.09.1-1.54.3-.45.2-.8.49-1.05.86-.25.37-.38.81-.38,1.31s.13.94.38,1.31c.25.37.6.66,1.05.86.45.2.96.31,1.54.31.5,0,.95-.07,1.33-.22M231.7,99.49v-3.09h0l2.65,3.09h1.03v-4.79h-1.26v2.69h0l-2.29-2.69h-1.38v4.79h1.25ZM226.67,95.93l.7,1.51h-1.41l.71-1.51ZM225.01,99.49l.52-1.13h2.26l.53,1.13h1.44l-2.34-4.79h-1.43l-2.34,4.79h1.36ZM219.29,99.49v-3.09h0l2.65,3.09h1.03v-4.79h-1.26v2.69h0l-2.3-2.69h-1.38v4.79h1.26ZM215.73,96.31v.07c0,.41-.23.61-.7.61h-1.49v-1.29h1.49c.46,0,.7.2.7.61M213.55,99.49v-1.54h1.11l.93,1.54h1.54l-1.09-1.71c.34-.12.6-.31.77-.55.18-.25.27-.56.27-.93,0-.52-.16-.91-.48-1.18-.32-.27-.8-.41-1.44-.41h-2.96v4.79h1.35ZM211.18,99.49v-1h-3.15v-.94h2.8v-.96h-2.8v-.89h3.11v-1h-4.46v4.79h4.5ZM204.02,99.49v-3.79h1.9v-1h-5.16v1h1.9v3.79h1.35ZM201.04,99.49v-1h-2.88v-3.79h-1.35v4.79h4.23ZM193.05,95.93l.7,1.51h-1.41l.71-1.51ZM191.39,99.49l.52-1.13h2.26l.53,1.13h1.44l-2.34-4.79h-1.43l-2.34,4.79h1.36ZM185.51,94.77v.1c0,.61-.34.91-1.03.91h-2.2v-1.91h2.2c.69,0,1.03.3,1.03.9M182.28,99.49v-2.28h1.64l1.38,2.28h2.28l-1.61-2.54c.5-.18.88-.45,1.14-.82.26-.37.39-.83.39-1.38,0-.77-.24-1.35-.71-1.76-.48-.4-1.19-.6-2.14-.6h-4.38v7.1h2ZM179.09,99.49v-1.48h-4.67v-1.4h4.15v-1.42h-4.15v-1.32h4.6v-1.48h-6.6v7.1h6.67ZM168.25,99.42c.47-.13.87-.34,1.21-.63l.08.7h1.59v-4.04h-4.4v1.38h2.56v.07c0,.26-.09.48-.28.66-.18.18-.43.32-.75.41s-.69.14-1.1.14c-.51,0-.96-.08-1.36-.23-.4-.16-.71-.39-.93-.7-.22-.31-.33-.69-.33-1.15v-.2c0-.46.11-.84.32-1.14.22-.3.51-.52.88-.67.37-.15.78-.23,1.24-.23.33,0,.63.03.92.1.29.06.54.18.76.35.22.17.4.42.53.75l1.79-.43c-.13-.44-.36-.83-.71-1.17-.35-.34-.8-.61-1.36-.81-.56-.2-1.21-.3-1.97-.3-.86,0-1.62.15-2.29.45-.67.3-1.19.72-1.57,1.27-.38.55-.57,1.19-.57,1.94s.18,1.39.54,1.94c.36.55.87.98,1.51,1.28.64.3,1.38.45,2.22.45.51,0,.99-.07,1.46-.2M157.99,94.21l1.04,2.24h-2.09l1.05-2.24ZM155.53,99.49l.77-1.68h3.35l.78,1.68h2.13l-3.46-7.1h-2.12l-3.46,7.1h2.01ZM147.39,99.49v-4.58h.01l3.92,4.58h1.53v-7.1h-1.86v3.98h0l-3.4-3.98h-2.05v7.1h1.86ZM140.28,94.21l1.04,2.24h-2.09l1.05-2.24ZM137.82,99.49l.77-1.68h3.35l.78,1.68h2.13l-3.46-7.1h-2.12l-3.46,7.1h2.01ZM126.17,99.49v-5.26h.01l2.56,5.26h1.83l2.56-5.26h.01v5.26h2v-7.1h-3.04l-2.38,4.93h-.01l-2.38-4.93h-3.02v7.1h1.86ZM118.53,99.49v-5.62h2.82v-1.48h-7.64v1.48h2.82v5.62h2ZM111.16,99.29c.57-.22,1.03-.51,1.4-.89.37-.37.61-.78.74-1.24l-1.79-.43c-.14.35-.33.62-.56.81-.23.2-.5.34-.79.41-.3.08-.61.12-.94.12-.44,0-.84-.07-1.21-.22-.37-.15-.66-.38-.88-.68-.22-.3-.33-.68-.33-1.14v-.2c0-.46.11-.84.33-1.14.22-.3.51-.52.88-.67.37-.15.77-.23,1.21-.23.33,0,.64.04.94.12.3.08.56.22.79.41.23.2.42.47.56.82l1.79-.43c-.13-.46-.37-.88-.74-1.24-.37-.37-.83-.66-1.4-.88-.57-.21-1.22-.32-1.97-.32-.85,0-1.61.15-2.28.45-.66.3-1.18.72-1.56,1.27-.38.55-.57,1.19-.57,1.94s.19,1.39.57,1.94c.38.55.9.98,1.56,1.28.66.3,1.42.45,2.28.45.75,0,1.4-.11,1.97-.33M102.1,99.31c.56-.2.98-.52,1.28-.95.3-.43.45-1,.45-1.7v-4.26h-1.95v4.17c0,.31-.05.58-.16.81-.1.23-.28.4-.54.52-.26.12-.61.18-1.07.18s-.83-.06-1.08-.18c-.25-.12-.43-.29-.53-.52-.1-.23-.15-.5-.15-.81v-4.17h-2v4.26c0,.7.15,1.27.45,1.7.3.43.73.75,1.28.95.56.2,1.22.31,1.99.31s1.46-.1,2.02-.31M89.38,93.87h1.69c.78,0,1.36.17,1.74.51.38.34.56.82.56,1.43v.26c0,.6-.19,1.07-.56,1.42-.38.35-.95.52-1.74.52h-1.69v-4.14ZM91.21,99.49c.94,0,1.72-.15,2.34-.46.62-.31,1.08-.73,1.39-1.26.31-.53.46-1.14.46-1.82s-.15-1.3-.46-1.83c-.31-.54-.77-.96-1.39-1.26-.62-.31-1.4-.46-2.34-.46h-3.83v7.1h3.83ZM80.47,97.56c-.4-.36-.6-.85-.6-1.48v-.26c0-.63.2-1.13.6-1.49.4-.36.94-.53,1.62-.53s1.22.18,1.62.53c.4.36.6.85.6,1.49v.26c0,.63-.2,1.13-.6,1.48-.4.36-.94.53-1.62.53s-1.22-.18-1.62-.53M84.4,99.14c.63-.32,1.11-.75,1.44-1.31.33-.55.5-1.18.5-1.88s-.17-1.35-.5-1.9-.81-.99-1.44-1.31c-.63-.32-1.4-.47-2.31-.47s-1.67.16-2.3.48c-.63.32-1.11.76-1.44,1.31s-.49,1.18-.49,1.89.17,1.33.5,1.88c.33.55.81.99,1.44,1.31.63.32,1.4.48,2.3.48s1.67-.16,2.31-.48M75.16,94.77v.1c0,.61-.34.91-1.03.91h-2.2v-1.91h2.2c.69,0,1.03.3,1.03.9M71.93,99.49v-2.28h1.64l1.38,2.28h2.28l-1.61-2.54c.5-.18.88-.45,1.15-.82.26-.37.39-.83.39-1.38,0-.77-.24-1.35-.72-1.76-.48-.4-1.19-.6-2.13-.6h-4.38v7.1h2ZM66.83,94.1c.18.15.27.39.27.71v.12c0,.29-.09.5-.27.65s-.47.23-.86.23h-2.08v-1.94h2.08c.39,0,.68.08.86.23M63.89,99.49v-2.25h2.18c.95,0,1.69-.2,2.21-.61.52-.41.78-1,.78-1.79s-.26-1.43-.78-1.84c-.52-.41-1.26-.61-2.21-.61h-4.18v7.1h2Z"/>
  <path class="st2" d="M307.84,111.26c.46-.14.82-.35,1.08-.63.26-.28.38-.63.38-1.04,0-.45-.16-.81-.48-1.08-.32-.27-.83-.45-1.52-.54l-1.7-.21c-.3-.04-.51-.1-.64-.18-.13-.08-.2-.19-.2-.32,0-.15.12-.27.36-.36.24-.08.55-.12.95-.12.47,0,.85.05,1.14.15.29.1.52.3.68.6l1.37-.42c-.18-.39-.43-.7-.74-.92-.31-.22-.67-.37-1.06-.46-.4-.09-.82-.14-1.25-.14-.6,0-1.13.07-1.58.2-.45.14-.8.34-1.04.61-.25.27-.37.61-.37,1.02,0,.46.18.83.53,1.09.35.26.89.44,1.6.53l1.54.19c.33.04.55.1.67.18.12.09.18.19.18.31,0,.16-.12.29-.36.39-.24.1-.59.15-1.06.15-.38,0-.69-.03-.93-.08s-.43-.14-.58-.26c-.15-.12-.27-.28-.38-.47l-1.43.42c.17.39.41.71.73.94.31.23.68.4,1.11.5.43.1.89.15,1.38.15.62,0,1.16-.07,1.62-.21M300.97,111.26c.46-.14.82-.35,1.08-.63.26-.28.38-.63.38-1.04,0-.45-.16-.81-.48-1.08-.32-.27-.83-.45-1.52-.54l-1.7-.21c-.3-.04-.51-.1-.64-.18-.13-.08-.2-.19-.2-.32,0-.15.12-.27.36-.36.24-.08.55-.12.95-.12.47,0,.85.05,1.14.15.29.1.52.3.68.6l1.37-.42c-.18-.39-.43-.7-.74-.92-.31-.22-.67-.37-1.06-.46-.4-.09-.82-.14-1.25-.14-.6,0-1.13.07-1.58.2-.45.14-.8.34-1.04.61-.25.27-.37.61-.37,1.02,0,.46.18.83.53,1.09.35.26.89.44,1.6.53l1.54.19c.33.04.55.1.67.18.12.09.18.19.18.31,0,.16-.12.29-.36.39-.24.1-.59.15-1.06.15-.38,0-.69-.03-.93-.08-.24-.06-.43-.14-.58-.26-.15-.12-.27-.28-.38-.47l-1.43.42c.17.39.41.71.73.94.31.23.68.4,1.11.5.43.1.89.15,1.38.15.62,0,1.16-.07,1.62-.21M295.53,111.37v-1.18h-3.74v-1.12h3.32v-1.14h-3.32v-1.06h3.68v-1.18h-5.28v5.68h5.34ZM284.66,111.37v-3.66h0l3.14,3.66h1.22v-5.68h-1.49v3.18h0l-2.72-3.18h-1.64v5.68h1.49ZM281.99,105.69h-1.6v5.68h1.6v-5.68ZM278,111.26c.46-.14.82-.35,1.08-.63.26-.28.38-.63.38-1.04,0-.45-.16-.81-.48-1.08-.32-.27-.83-.45-1.52-.54l-1.7-.21c-.3-.04-.51-.1-.64-.18-.13-.08-.2-.19-.2-.32,0-.15.12-.27.36-.36.24-.08.55-.12.95-.12.47,0,.85.05,1.14.15.29.1.52.3.68.6l1.37-.42c-.18-.39-.43-.7-.74-.92-.31-.22-.67-.37-1.06-.46-.4-.09-.81-.14-1.25-.14-.6,0-1.13.07-1.58.2-.45.14-.8.34-1.04.61-.24.27-.37.61-.37,1.02,0,.46.18.83.53,1.09.35.26.89.44,1.6.53l1.54.19c.33.04.55.1.67.18.12.09.18.19.18.31,0,.16-.12.29-.36.39-.24.1-.59.15-1.06.15-.38,0-.69-.03-.93-.08-.24-.06-.43-.14-.58-.26-.15-.12-.27-.28-.38-.47l-1.43.42c.17.39.41.71.73.94.32.23.69.4,1.11.5.43.1.89.15,1.38.15.62,0,1.16-.07,1.62-.21M271.06,111.23c.45-.16.79-.42,1.03-.76.24-.35.36-.8.36-1.36v-3.41h-1.56v3.34c0,.25-.04.47-.12.65-.08.18-.23.32-.43.42-.21.1-.49.14-.86.14s-.66-.05-.86-.14c-.2-.1-.34-.24-.42-.42s-.12-.4-.12-.65v-3.34h-1.6v3.41c0,.56.12,1.01.36,1.36.24.35.58.6,1.03.76.45.16.98.24,1.6.24s1.17-.08,1.61-.24M261.37,109.05h1.82c.55,0,.82.17.82.51v.07c0,.37-.27.55-.82.55h-1.82v-1.14ZM263.93,107.37v.07c0,.35-.27.52-.8.52h-1.76v-1.1h1.76c.53,0,.8.17.8.51M263.19,111.37c.76,0,1.35-.14,1.77-.42.42-.28.63-.69.63-1.24,0-.3-.08-.55-.23-.76-.15-.21-.41-.37-.78-.5.32-.13.54-.3.68-.52.14-.22.21-.46.21-.74,0-.52-.2-.9-.62-1.14-.41-.25-.99-.37-1.74-.37h-3.35v5.68h3.42ZM256.9,107.53h-1.9v1.88h1.9v-1.88ZM250.21,111.37v-4.5h2.26v-1.18h-6.11v1.18h2.26v4.5h1.6ZM241.31,111.37v-3.66h0l3.14,3.66h1.22v-5.68h-1.49v3.18h0l-2.72-3.18h-1.64v5.68h1.49ZM234.23,109.83c-.32-.28-.48-.68-.48-1.19v-.21c0-.51.16-.9.48-1.19.32-.28.75-.43,1.3-.43s.98.14,1.3.43c.32.29.48.68.48,1.19v.21c0,.51-.16.9-.48,1.19-.32.28-.75.43-1.3.43s-.98-.14-1.3-.43M237.37,111.09c.5-.25.89-.6,1.15-1.04.26-.44.4-.94.4-1.5s-.13-1.08-.4-1.52c-.26-.44-.65-.79-1.15-1.04-.5-.25-1.12-.38-1.84-.38s-1.33.13-1.84.38c-.51.26-.89.61-1.16,1.05-.26.44-.4.95-.4,1.51s.13,1.06.4,1.5c.27.44.65.79,1.16,1.04.5.25,1.12.38,1.84.38s1.34-.13,1.84-.38M229.91,107.6v.08c0,.49-.28.73-.82.73h-1.76v-1.53h1.76c.55,0,.82.24.82.72M227.33,111.37v-1.82h1.31l1.1,1.82h1.82l-1.29-2.03c.4-.14.71-.36.92-.66s.32-.66.32-1.1c0-.61-.19-1.08-.57-1.4s-.95-.48-1.71-.48h-3.5v5.68h1.6ZM221.41,111.37v-2.13h3.26v-1.14h-3.26v-1.23h3.44v-1.18h-5.04v5.68h1.6ZM216.95,107.53h-1.9v1.88h1.9v-1.88ZM207.81,111.37v-3.66h0l3.14,3.66h1.22v-5.68h-1.49v3.18h0l-2.72-3.18h-1.64v5.68h1.49ZM202.93,111.32c.37-.11.7-.27.97-.5l.06.56h1.27v-3.23h-3.52v1.1h2.05v.06c0,.21-.07.38-.22.53-.15.14-.35.25-.6.33s-.55.12-.88.12c-.41,0-.77-.06-1.08-.19-.32-.12-.57-.31-.74-.56-.18-.25-.27-.55-.27-.92v-.16c0-.37.09-.67.26-.91.17-.24.41-.42.7-.54.3-.12.62-.18.99-.18.26,0,.51.03.74.08.23.05.43.14.61.28.18.14.32.34.43.6l1.43-.34c-.1-.35-.29-.67-.57-.94-.28-.28-.64-.49-1.09-.65-.45-.16-.97-.24-1.57-.24-.69,0-1.3.12-1.83.36-.53.24-.95.58-1.26,1.02-.3.44-.46.96-.46,1.55s.14,1.12.44,1.56c.29.44.69.78,1.21,1.02.51.24,1.1.36,1.77.36.4,0,.79-.05,1.17-.16M197.44,105.69h-1.6v5.68h1.6v-5.68ZM193.45,111.26c.46-.14.82-.35,1.08-.63.26-.28.38-.63.38-1.04,0-.45-.16-.81-.48-1.08-.32-.27-.83-.45-1.52-.54l-1.7-.21c-.3-.04-.51-.1-.64-.18-.13-.08-.2-.19-.2-.32,0-.15.12-.27.36-.36s.55-.12.95-.12c.47,0,.85.05,1.14.15.29.1.52.3.68.6l1.37-.42c-.18-.39-.43-.7-.74-.92-.31-.22-.67-.37-1.06-.46s-.82-.14-1.25-.14c-.6,0-1.13.07-1.58.2s-.8.34-1.04.61c-.25.27-.37.61-.37,1.02,0,.46.18.83.53,1.09.35.26.89.44,1.6.53l1.54.19c.33.04.55.1.67.18.12.09.18.19.18.31,0,.16-.12.29-.36.39-.24.1-.59.15-1.06.15-.38,0-.69-.03-.93-.08-.24-.06-.43-.14-.58-.26-.15-.12-.27-.28-.38-.47l-1.43.42c.17.39.41.71.73.94s.68.4,1.11.5c.43.1.89.15,1.38.15.62,0,1.16-.07,1.62-.21M188.01,111.37v-1.18h-3.74v-1.12h3.32v-1.14h-3.32v-1.06h3.68v-1.18h-5.28v5.68h5.34ZM176.95,106.88h1.35c.62,0,1.09.14,1.39.41.3.27.45.65.45,1.14v.21c0,.48-.15.86-.45,1.14-.3.28-.76.42-1.39.42h-1.35v-3.31ZM178.42,111.37c.75,0,1.38-.12,1.87-.37.49-.25.86-.58,1.11-1.01.24-.43.37-.91.37-1.46s-.12-1.04-.37-1.47c-.25-.43-.62-.77-1.11-1.01-.49-.25-1.12-.37-1.87-.37h-3.06v5.68h3.06ZM170.87,105.25h-1.33v6.77h1.33v-6.77ZM163.13,111.37v-4.5h2.26v-1.18h-6.11v1.18h2.26v4.5h1.6ZM158.59,105.69h-1.6v5.68h1.6v-5.68ZM154.47,111.23c.45-.16.79-.42,1.03-.76.24-.35.36-.8.36-1.36v-3.41h-1.56v3.34c0,.25-.04.47-.12.65-.08.18-.23.32-.43.42-.21.1-.49.14-.86.14s-.66-.05-.86-.14c-.2-.1-.34-.24-.42-.42s-.12-.4-.12-.65v-3.34h-1.6v3.41c0,.56.12,1.01.36,1.36s.58.6,1.03.76c.45.16.98.24,1.6.24s1.17-.08,1.61-.24M144.23,106.88h1.35c.62,0,1.09.14,1.39.41.3.27.45.65.45,1.14v.21c0,.48-.15.86-.45,1.14-.3.28-.76.42-1.39.42h-1.35v-3.31ZM145.7,111.37c.75,0,1.38-.12,1.87-.37.49-.25.86-.58,1.11-1.01.24-.43.37-.91.37-1.46s-.12-1.04-.37-1.47c-.24-.43-.62-.77-1.11-1.01-.49-.25-1.12-.37-1.87-.37h-3.06v5.68h3.06ZM137.04,109.83c-.32-.28-.48-.68-.48-1.19v-.21c0-.51.16-.9.48-1.19.32-.28.75-.43,1.3-.43s.98.14,1.3.43c.32.29.48.68.48,1.19v.21c0,.51-.16.9-.48,1.19-.32.28-.75.43-1.3.43s-.98-.14-1.3-.43M140.18,111.09c.5-.25.89-.6,1.15-1.04.26-.44.4-.94.4-1.5s-.13-1.08-.4-1.52c-.26-.44-.65-.79-1.15-1.04-.5-.25-1.12-.38-1.84-.38s-1.33.13-1.84.38c-.51.26-.89.61-1.16,1.05-.26.44-.4.95-.4,1.51s.13,1.06.4,1.5c.27.44.65.79,1.16,1.04.5.25,1.12.38,1.84.38s1.34-.13,1.84-.38M132.72,107.6v.08c0,.49-.27.73-.82.73h-1.76v-1.53h1.76c.55,0,.82.24.82.72M130.14,111.37v-1.82h1.31l1.1,1.82h1.82l-1.29-2.03c.4-.14.71-.36.92-.66.21-.29.32-.66.32-1.1,0-.61-.19-1.08-.57-1.4-.38-.32-.95-.48-1.71-.48h-3.5v5.68h1.6ZM126,107.06c.14.12.22.31.22.57v.1c0,.23-.07.4-.22.52-.14.12-.37.18-.69.18h-1.66v-1.55h1.66c.32,0,.54.06.69.18M123.65,111.37v-1.8h1.74c.76,0,1.35-.16,1.77-.49.42-.32.63-.8.63-1.43s-.21-1.14-.63-1.47c-.42-.33-1.01-.49-1.77-.49h-3.34v5.68h1.6ZM118.4,104.09l-1.14-.37-.99,1.39.99.18,1.14-1.2ZM119.5,111.37v-1.18h-3.74v-1.12h3.32v-1.14h-3.32v-1.06h3.68v-1.18h-5.28v5.68h5.34ZM111.23,111.37v-4.5h2.26v-1.18h-6.11v1.18h2.26v4.5h1.6ZM102.32,111.37v-3.66h0l3.14,3.66h1.22v-5.68h-1.49v3.18h0l-2.72-3.18h-1.64v5.68h1.49ZM99.82,111.37v-1.18h-3.74v-1.12h3.32v-1.14h-3.32v-1.06h3.68v-1.18h-5.28v5.68h5.34ZM93.31,105.69h-1.6v5.68h1.6v-5.68ZM89.17,107.6v.08c0,.49-.27.73-.82.73h-1.76v-1.53h1.76c.55,0,.82.24.82.72M86.59,111.37v-1.82h1.31l1.1,1.82h1.82l-1.29-2.03c.4-.14.71-.36.92-.66.21-.29.32-.66.32-1.1,0-.61-.19-1.08-.57-1.4-.38-.32-.95-.48-1.71-.48h-3.5v5.68h1.6ZM79.4,109.83c-.32-.28-.48-.68-.48-1.19v-.21c0-.51.16-.9.48-1.19.32-.28.75-.43,1.3-.43s.98.14,1.3.43c.32.29.48.68.48,1.19v.21c0,.51-.16.9-.48,1.19-.32.28-.75.43-1.3.43s-.98-.14-1.3-.43M82.54,111.09c.5-.25.89-.6,1.15-1.04.26-.44.4-.94.4-1.5s-.13-1.08-.4-1.52c-.26-.44-.65-.79-1.15-1.04-.5-.25-1.12-.38-1.84-.38s-1.33.13-1.84.38c-.51.26-.89.61-1.16,1.05-.26.44-.4.95-.4,1.51s.13,1.06.4,1.5c.27.44.65.79,1.16,1.04.5.25,1.12.38,1.84.38s1.34-.13,1.84-.38M75.14,111.37v-1.18h-3.41v-4.5h-1.6v5.68h5.01ZM65.87,107.15l.83,1.79h-1.67l.84-1.79ZM63.91,111.37l.62-1.34h2.68l.62,1.34h1.7l-2.77-5.68h-1.7l-2.77,5.68h1.61ZM60.61,111.37v-4.5h2.26v-1.18h-6.11v1.18h2.26v4.5h1.6ZM56.07,105.69h-1.6v5.68h1.6v-5.68ZM51.07,111.32c.37-.11.7-.27.97-.5l.06.56h1.27v-3.23h-3.52v1.1h2.05v.06c0,.21-.07.38-.22.53-.15.14-.35.25-.6.33s-.55.12-.88.12c-.41,0-.77-.06-1.08-.19-.32-.12-.56-.31-.74-.56-.18-.25-.27-.55-.27-.92v-.16c0-.37.09-.67.26-.91.17-.24.41-.42.7-.54.3-.12.62-.18.99-.18.26,0,.51.03.74.08.23.05.43.14.61.28.18.14.32.34.43.6l1.43-.34c-.1-.35-.29-.67-.57-.94-.28-.28-.64-.49-1.09-.65s-.97-.24-1.57-.24c-.69,0-1.3.12-1.83.36-.53.24-.95.58-1.26,1.02-.3.44-.46.96-.46,1.55s.15,1.12.44,1.56c.29.44.69.78,1.21,1.02s1.1.36,1.77.36c.4,0,.79-.05,1.17-.16M45.58,105.69h-1.6v5.68h1.6v-5.68ZM38.26,106.88h1.35c.62,0,1.09.14,1.39.41.3.27.45.65.45,1.14v.21c0,.48-.15.86-.45,1.14-.3.28-.76.42-1.39.42h-1.35v-3.31ZM39.73,111.37c.75,0,1.37-.12,1.87-.37.49-.25.86-.58,1.11-1.01.24-.43.37-.91.37-1.46s-.12-1.04-.37-1.47c-.25-.43-.62-.77-1.11-1.01-.49-.25-1.12-.37-1.87-.37h-3.06v5.68h3.06ZM34.3,111.37v-1.18h-3.41v-4.5h-1.6v5.68h5.01ZM28.11,105.69h-1.6v5.68h1.6v-5.68ZM22.18,111.37v-2.13h3.26v-1.14h-3.26v-1.23h3.44v-1.18h-5.04v5.68h1.6ZM15,109.83c-.32-.28-.48-.68-.48-1.19v-.21c0-.51.16-.9.48-1.19.32-.28.75-.43,1.3-.43s.98.14,1.3.43c.32.29.48.68.48,1.19v.21c0,.51-.16.9-.48,1.19-.32.28-.75.43-1.3.43s-.98-.14-1.3-.43M18.14,111.09c.5-.25.89-.6,1.15-1.04.26-.44.4-.94.4-1.5s-.13-1.08-.4-1.52c-.26-.44-.65-.79-1.15-1.04-.5-.25-1.12-.38-1.84-.38s-1.33.13-1.84.38c-.51.26-.89.61-1.16,1.05-.26.44-.4.95-.4,1.51s.13,1.06.4,1.5c.27.44.65.79,1.16,1.04.5.25,1.12.38,1.84.38s1.34-.13,1.84-.38M10.68,107.6v.08c0,.49-.27.73-.82.73h-1.76v-1.53h1.76c.55,0,.82.24.82.72M8.09,111.37v-1.82h1.31l1.1,1.82h1.82l-1.29-2.03c.4-.14.7-.36.92-.66.21-.29.32-.66.32-1.1,0-.61-.19-1.08-.57-1.4-.38-.32-.95-.48-1.71-.48h-3.5v5.68h1.6ZM3.95,107.06c.14.12.22.31.22.57v.1c0,.23-.07.4-.22.52-.14.12-.37.18-.69.18h-1.66v-1.55h1.66c.32,0,.54.06.69.18M1.6,111.37v-1.8h1.74c.76,0,1.35-.16,1.77-.49.42-.32.63-.8.63-1.43s-.21-1.14-.63-1.47c-.42-.33-1.01-.49-1.77-.49H0v5.68h1.6Z"/>
</svg>

